<svg xmlns="http://www.w3.org/2000/svg" version="1.1" xmlns:xlink="http://www.w3.org/1999/xlink" xmlns:svgjs="http://svgjs.dev/svgjs" width="2000" height="2024" viewBox="0 0 2000 2024"><g transform="matrix(1,0,0,1,1.7678739090860063,0.8194331983804659)"><svg viewBox="0 0 244 247" data-background-color="#ffffff" preserveAspectRatio="xMidYMid meet" height="2024" width="2000" xmlns="http://www.w3.org/2000/svg" xmlns:xlink="http://www.w3.org/1999/xlink"><g id="tight-bounds" transform="matrix(1,0,0,1,-0.21568061690848594,-0.09999999999999432)"><svg viewBox="0 0 244.43135999999998 247.2" height="247.2" width="244.43135999999998"><g><svg></svg></g><g><svg viewBox="0 0 244.43135999999998 247.2" height="247.2" width="244.43135999999998"><g transform="matrix(1,0,0,1,0,62.97737213729754)"><svg viewBox="0 0 244.43135999999998 121.2452557254049" height="121.2452557254049" width="244.43135999999998"><g><svg viewBox="0 0 244.43135999999998 121.2452557254049" height="121.2452557254049" width="244.43135999999998"><g><svg viewBox="0 0 244.43135999999998 121.2452557254049" height="121.2452557254049" width="244.43135999999998"><g id="textblocktransform"><svg viewBox="0 0 244.43135999999998 121.2452557254049" height="121.2452557254049" width="244.43135999999998" id="textblock"><g><svg viewBox="0 0 244.43135999999998 73.14460116195782" height="73.14460116195782" width="244.43135999999998"><g transform="matrix(1,0,0,1,0,0)"><svg width="244.43135999999998" viewBox="0.8999999761581421 -37.099998474121094 125.63999938964844 37.599998474121094" height="73.14460116195782" data-palette-color="#ee3e38"><path d="M18.85-19.25L18.85-19.25Q18.05-20.2 16.75-20.98 15.45-21.75 13.45-21.75L13.45-21.75Q11.9-21.75 10.8-21.18 9.7-20.6 9.7-19.5L9.7-19.5Q9.7-19.05 10.1-18.57 10.5-18.1 12.05-17.75L12.05-17.75 17.55-16.5Q22-15.55 23.8-13.3 25.6-11.05 25.6-8.25L25.6-8.25Q25.6-5.5 24.05-3.53 22.5-1.55 19.73-0.53 16.95 0.5 13.3 0.5L13.3 0.5Q8.65 0.5 5.5-1.1 2.35-2.7 1.1-4.95L1.1-4.95Q0.9-5.35 0.9-5.73 0.9-6.1 1.2-6.3L1.2-6.3 5.1-8.3Q5.7-8.55 6-8.5 6.3-8.45 6.5-8.2L6.5-8.2Q7.15-7.4 7.95-6.68 8.75-5.95 10.05-5.48 11.35-5 13.35-5.05L13.35-5.05Q14.55-5.1 15.55-5.35 16.55-5.6 17.13-6.1 17.7-6.6 17.7-7.35L17.7-7.35Q17.7-8 17.15-8.5 16.6-9 14.9-9.35L14.9-9.35 9.8-10.35Q6-11.1 3.98-13 1.95-14.9 1.9-18.1L1.9-18.1Q1.9-20.65 3.25-22.68 4.6-24.7 7.23-25.85 9.85-27 13.55-27L13.55-27Q17.5-27 20.33-25.58 23.15-24.15 24.3-22.25L24.3-22.25Q24.55-21.9 24.68-21.5 24.8-21.1 24.3-20.9L24.3-20.9 20.2-18.9Q19.75-18.7 19.45-18.8 19.15-18.9 18.85-19.25L18.85-19.25ZM30.35 0L30.35 0Q29.2 0 29.2-1.15L29.2-1.15 29.2-36.05Q29.2-37.1 30.05-37.1L30.05-37.1 37.1-37.1Q37.95-37.1 37.95-36.15L37.95-36.15 37.95-23.5Q37.95-23.2 38.1-23.15 38.25-23.1 38.55-23.3L38.55-23.3Q40.05-24.7 41.4-25.5 42.75-26.3 44.07-26.65 45.4-27 46.8-27L46.8-27Q50.55-27 52.6-24.88 54.65-22.75 54.65-18.85L54.65-18.85 54.65-1.35Q54.65 0 53.25 0L53.25 0 46.8 0Q46.2 0 45.97-0.25 45.75-0.5 45.75-1.15L45.75-1.15 45.75-17.75Q45.75-19.15 44.92-19.9 44.1-20.65 42.65-20.65L42.65-20.65Q41.75-20.65 40.95-20.35 40.15-20.05 39.47-19.43 38.8-18.8 38.1-17.85L38.1-17.85 38.1-1.3Q38.1 0 36.6 0L36.6 0 30.35 0ZM73.09-2.3L73.09-2.3Q71.65-1.1 69.8-0.3 67.95 0.5 65.55 0.5L65.55 0.5Q61.75 0.5 59.62-1.58 57.5-3.65 57.5-6.8L57.5-6.8Q57.5-9.7 59.3-11.85 61.09-14 64.45-15.2 67.8-16.4 72.4-16.45L72.4-16.45 73.45-16.5Q73.65-16.5 73.92-16.63 74.2-16.75 74.2-17.2L74.2-17.2 74.2-18.15Q74.2-19.8 73.3-20.7 72.4-21.6 70.65-21.6L70.65-21.6Q69.34-21.6 68.12-21.03 66.9-20.45 66.09-18.95L66.09-18.95Q65.89-18.6 65.7-18.48 65.5-18.35 64.89-18.45L64.89-18.45 59.05-19.65Q58.75-19.75 58.59-20 58.45-20.25 58.75-21.1L58.75-21.1Q60-24.2 63.15-25.6 66.3-27 71.05-27L71.05-27Q75.45-27 77.97-25.95 80.5-24.9 81.57-23.05 82.65-21.2 82.65-18.7L82.65-18.7 82.65-1.25Q82.65-0.55 82.45-0.28 82.25 0 81.59 0L81.59 0 75.59 0Q75 0 74.75-0.48 74.5-0.95 74.4-1.55L74.4-1.55 74.34-2.3Q74.2-3.25 73.09-2.3L73.09-2.3ZM74.2-11.5L74.2-11.5Q74.2-12.4 73.45-12.35L73.45-12.35 72.65-12.3Q71.75-12.3 70.62-12.03 69.5-11.75 68.47-11.23 67.45-10.7 66.8-9.9 66.14-9.1 66.14-8L66.14-8Q66.14-6.7 67.05-5.95 67.95-5.2 69.5-5.2L69.5-5.2Q70.65-5.2 71.47-5.55 72.3-5.9 72.8-6.35L72.8-6.35Q73.4-6.85 73.8-7.38 74.2-7.9 74.2-8.55L74.2-8.55 74.2-11.5ZM88.79 0L88.79 0Q87.59 0 87.59-1.15L87.59-1.15 87.59-25.45Q87.59-26.5 88.44-26.5L88.44-26.5 95.54-26.5Q96.39-26.5 96.39-25.6L96.39-25.6 96.39-23.2Q96.39-22.9 96.54-22.83 96.69-22.75 96.99-23L96.99-23Q98.14-24.2 99.44-25.1 100.74-26 102.17-26.5 103.59-27 105.19-27L105.19-27Q108.74-27 110.92-24.83 113.09-22.65 113.09-19L113.09-19 113.09-1.35Q113.09 0 111.69 0L111.69 0 105.24 0Q104.64 0 104.42-0.25 104.19-0.5 104.19-1.15L104.19-1.15 104.19-17.75Q104.19-19.15 103.37-19.9 102.54-20.65 101.04-20.65L101.04-20.65Q100.14-20.65 99.37-20.35 98.59-20.05 97.89-19.43 97.19-18.8 96.49-17.85L96.49-17.85 96.49-1.3Q96.49 0 94.99 0L94.99 0 88.79 0ZM126.49-25.55L126.49-1.35Q126.49-0.6 126.14-0.3 125.79 0 124.99 0L124.99 0 118.79 0Q118.09 0 117.84-0.28 117.59-0.55 117.59-1.15L117.59-1.15 117.59-25.45Q117.59-26.5 118.49-26.5L118.49-26.5 125.64-26.5Q126.49-26.5 126.49-25.55L126.49-25.55ZM126.54-36.1L126.54-30.55Q126.54-29.2 124.99-29.2L124.99-29.2 118.74-29.2Q118.04-29.2 117.79-29.5 117.54-29.8 117.54-30.4L117.54-30.4 117.54-36Q117.54-37.1 118.44-37.1L118.44-37.1 125.64-37.1Q126.54-37.1 126.54-36.1L126.54-36.1Z" opacity="1" transform="matrix(1,0,0,1,0,0)" fill="#ffffff" class="wordmark-text-0" data-fill-palette-color="primary" id="text-0"></path></svg></g></svg></g><g transform="matrix(1,0,0,1,0,90.41228602586818)"><svg viewBox="0 0 244.43135999999998 30.832969699536722" height="30.832969699536722" width="244.43135999999998"><g transform="matrix(1,0,0,1,0,0)"><svg width="244.43135999999998" viewBox="3.549999952316284 -36.5 377.71002197265625 47.650001525878906" height="30.832969699536722" data-palette-color="#8d021f"><path d="M7.95 0L3.55 0 3.55-26.1 7.95-26.1 7.95 0ZM7.95-31L3.55-31 3.55-36.5 7.95-36.5 7.95-31ZM37.7-15.6L37.7 0 33.3 0 33.3-14.6Q33.3-18.75 32.02-20.68 30.75-22.6 28.15-22.6L28.15-22.6Q26.35-22.6 24.57-21.7 22.8-20.8 21.42-19.28 20.05-17.75 19.45-15.75L19.45-15.75 19.45 0 15.05 0 15.05-26.1 19.05-26.1 19.05-20.5Q20.1-22.35 21.75-23.7 23.4-25.05 25.5-25.8 27.6-26.55 29.9-26.55L29.9-26.55Q32.15-26.55 33.67-25.73 35.2-24.9 36.07-23.43 36.95-21.95 37.32-19.95 37.7-17.95 37.7-15.6L37.7-15.6ZM56.75-4.8L57.8-1.3Q57.25-1.05 56.3-0.65 55.35-0.25 54.1 0.05 52.85 0.35 51.45 0.35L51.45 0.35Q49.85 0.35 48.5-0.23 47.15-0.8 46.35-2.02 45.55-3.25 45.55-5.1L45.55-5.1 45.55-22.65 42-22.65 42-26.1 45.55-26.1 45.55-34.8 49.95-34.8 49.95-26.1 55.8-26.1 55.8-22.65 49.95-22.65 49.95-6.45Q50.05-5.05 50.9-4.38 51.75-3.7 52.9-3.7L52.9-3.7Q54.2-3.7 55.3-4.15 56.4-4.6 56.75-4.8L56.75-4.8ZM73.09 0.5L73.09 0.5Q70.14 0.5 67.72-0.58 65.29-1.65 63.52-3.53 61.74-5.4 60.77-7.85 59.79-10.3 59.79-13.05L59.79-13.05Q59.79-16.75 61.49-19.8 63.19-22.85 66.22-24.7 69.24-26.55 73.14-26.55L73.14-26.55Q77.09-26.55 80.02-24.68 82.94-22.8 84.57-19.78 86.19-16.75 86.19-13.25L86.19-13.25Q86.19-12.75 86.17-12.28 86.14-11.8 86.09-11.55L86.09-11.55 64.44-11.55Q64.64-9 65.87-7.03 67.09-5.05 69.04-3.93 70.99-2.8 73.24-2.8L73.24-2.8Q75.64-2.8 77.77-4 79.89-5.2 80.69-7.15L80.69-7.15 84.49-6.1Q83.64-4.2 81.97-2.7 80.29-1.2 78.02-0.35 75.74 0.5 73.09 0.5ZM64.29-14.6L64.29-14.6 82.09-14.6Q81.89-17.15 80.64-19.1 79.39-21.05 77.44-22.15 75.49-23.25 73.14-23.25L73.14-23.25Q70.84-23.25 68.89-22.15 66.94-21.05 65.72-19.1 64.49-17.15 64.29-14.6ZM104.89-26.25L104.89-22.25Q101.59-22.2 99.07-20.58 96.54-18.95 95.49-16.1L95.49-16.1 95.49 0 91.09 0 91.09-26.1 95.19-26.1 95.19-20.05Q96.54-22.75 98.77-24.43 100.99-26.1 103.44-26.3L103.44-26.3Q103.94-26.3 104.29-26.3 104.64-26.3 104.89-26.25L104.89-26.25ZM113.64 0L109.24 0 109.24-26.1 113.64-26.1 113.64 0ZM113.64-31L109.24-31 109.24-36.5 113.64-36.5 113.64-31ZM132.14 0.5L132.14 0.5Q129.19 0.5 126.79-0.58 124.39-1.65 122.64-3.53 120.89-5.4 119.94-7.85 118.99-10.3 118.99-13L118.99-13Q118.99-15.75 119.94-18.2 120.89-20.65 122.64-22.53 124.39-24.4 126.81-25.48 129.24-26.55 132.19-26.55L132.19-26.55Q135.09-26.55 137.49-25.48 139.89-24.4 141.66-22.53 143.44-20.65 144.39-18.2 145.34-15.75 145.34-13L145.34-13Q145.34-10.3 144.39-7.85 143.44-5.4 141.69-3.53 139.94-1.65 137.51-0.58 135.09 0.5 132.14 0.5ZM123.49-12.95L123.49-12.95Q123.49-10.25 124.66-8.05 125.84-5.85 127.79-4.58 129.74-3.3 132.14-3.3L132.14-3.3Q134.54-3.3 136.51-4.6 138.49-5.9 139.66-8.13 140.84-10.35 140.84-13.05L140.84-13.05Q140.84-15.75 139.66-17.95 138.49-20.15 136.51-21.45 134.54-22.75 132.14-22.75L132.14-22.75Q129.74-22.75 127.79-21.43 125.84-20.1 124.66-17.9 123.49-15.7 123.49-12.95ZM164.48-26.25L164.48-22.25Q161.18-22.2 158.66-20.58 156.13-18.95 155.08-16.1L155.08-16.1 155.08 0 150.68 0 150.68-26.1 154.78-26.1 154.78-20.05Q156.13-22.75 158.36-24.43 160.58-26.1 163.03-26.3L163.03-26.3Q163.53-26.3 163.88-26.3 164.23-26.3 164.48-26.25L164.48-26.25ZM178.63-13L178.63-13Q178.63-16.7 180.15-19.78 181.68-22.85 184.35-24.7 187.03-26.55 190.48-26.55L190.48-26.55Q193.63-26.55 196.13-24.9 198.63-23.25 200.03-20.9L200.03-20.9 200.03-36.5 204.43-36.5 204.43-5Q204.43-4.2 204.75-3.83 205.08-3.45 205.83-3.4L205.83-3.4 205.83 0Q204.58 0.2 203.88 0.2L203.88 0.2Q202.58 0.2 201.6-0.7 200.63-1.6 200.63-2.7L200.63-2.7 200.63-4.9Q199.08-2.4 196.48-0.95 193.88 0.5 191.08 0.5L191.08 0.5Q188.38 0.5 186.1-0.58 183.83-1.65 182.15-3.55 180.48-5.45 179.55-7.88 178.63-10.3 178.63-13ZM200.03-9.15L200.03-9.15 200.03-16.65Q199.43-18.35 198.08-19.73 196.73-21.1 195.05-21.93 193.38-22.75 191.73-22.75L191.73-22.75Q189.78-22.75 188.2-21.93 186.63-21.1 185.5-19.73 184.38-18.35 183.78-16.6 183.18-14.85 183.18-12.95L183.18-12.95Q183.18-11 183.85-9.25 184.53-7.5 185.75-6.15 186.98-4.8 188.6-4.05 190.23-3.3 192.13-3.3L192.13-3.3Q193.33-3.3 194.6-3.75 195.88-4.2 197.03-5 198.18-5.8 198.98-6.88 199.78-7.95 200.03-9.15ZM223.33 0.5L223.33 0.5Q220.38 0.5 217.95-0.58 215.53-1.65 213.75-3.53 211.98-5.4 211-7.85 210.03-10.3 210.03-13.05L210.03-13.05Q210.03-16.75 211.73-19.8 213.43-22.85 216.45-24.7 219.48-26.55 223.38-26.55L223.38-26.55Q227.33-26.55 230.25-24.68 233.18-22.8 234.8-19.78 236.43-16.75 236.43-13.25L236.43-13.25Q236.43-12.75 236.4-12.28 236.38-11.8 236.33-11.55L236.33-11.55 214.68-11.55Q214.88-9 216.1-7.03 217.33-5.05 219.28-3.93 221.23-2.8 223.48-2.8L223.48-2.8Q225.88-2.8 228-4 230.13-5.2 230.93-7.15L230.93-7.15 234.73-6.1Q233.88-4.2 232.2-2.7 230.53-1.2 228.25-0.35 225.98 0.5 223.33 0.5ZM214.53-14.6L214.53-14.6 232.33-14.6Q232.13-17.15 230.88-19.1 229.63-21.05 227.68-22.15 225.73-23.25 223.38-23.25L223.38-23.25Q221.08-23.25 219.13-22.15 217.18-21.05 215.95-19.1 214.73-17.15 214.53-14.6ZM250.27 0.5L250.27 0.5Q247.02 0.5 244.17-0.58 241.32-1.65 239.27-3.8L239.27-3.8 240.97-6.9Q243.22-4.8 245.47-3.9 247.72-3 250.07-3L250.07-3Q252.77-3 254.47-4.03 256.17-5.05 256.17-7.05L256.17-7.05Q256.17-8.5 255.3-9.2 254.42-9.9 252.82-10.38 251.22-10.85 249.02-11.45L249.02-11.45Q246.32-12.25 244.47-13.15 242.62-14.05 241.67-15.4 240.72-16.75 240.72-18.8L240.72-18.8Q240.72-21.3 242.02-23.03 243.32-24.75 245.6-25.65 247.87-26.55 250.77-26.55L250.77-26.55Q253.67-26.55 256.02-25.65 258.37-24.75 260.07-23L260.07-23 258.07-19.95Q256.52-21.55 254.67-22.33 252.82-23.1 250.52-23.1L250.52-23.1Q249.17-23.1 247.87-22.78 246.57-22.45 245.72-21.63 244.87-20.8 244.87-19.3L244.87-19.3Q244.87-18.05 245.55-17.32 246.22-16.6 247.55-16.1 248.87-15.6 250.77-15L250.77-15Q253.72-14.15 255.9-13.3 258.07-12.45 259.27-11.1 260.47-9.75 260.47-7.35L260.47-7.35Q260.47-3.65 257.67-1.58 254.87 0.5 250.27 0.5ZM270.12 0L265.72 0 265.72-26.1 270.12-26.1 270.12 0ZM270.12-31L265.72-31 265.72-36.5 270.12-36.5 270.12-31ZM287.62 0.3L287.62 0.3Q284.97 0.3 282.74-0.78 280.52-1.85 278.92-3.73 277.32-5.6 276.44-8 275.57-10.4 275.57-13L275.57-13Q275.57-15.75 276.44-18.2 277.32-20.65 278.94-22.53 280.57-24.4 282.77-25.48 284.97-26.55 287.67-26.55L287.67-26.55Q290.92-26.55 293.34-24.95 295.77-23.35 297.42-20.9L297.42-20.9 297.42-26.1 301.32-26.1 301.32-0.3Q301.32 3.4 299.54 5.95 297.77 8.5 294.74 9.83 291.72 11.15 288.02 11.15L288.02 11.15Q283.62 11.15 280.82 9.6 278.02 8.05 276.17 5.4L276.17 5.4 278.72 3.15Q280.27 5.45 282.74 6.6 285.22 7.75 288.02 7.75L288.02 7.75Q290.42 7.75 292.44 6.88 294.47 6 295.69 4.2 296.92 2.4 296.92-0.3L296.92-0.3 296.92-4.9Q295.47-2.5 292.94-1.1 290.42 0.3 287.62 0.3ZM288.97-3.3L288.97-3.3Q290.37-3.3 291.67-3.8 292.97-4.3 294.07-5.13 295.17-5.95 295.92-7 296.67-8.05 296.92-9.15L296.92-9.15 296.92-16.65Q296.22-18.45 294.92-19.83 293.62-21.2 291.97-21.98 290.32-22.75 288.57-22.75L288.57-22.75Q286.57-22.75 284.99-21.9 283.42-21.05 282.32-19.63 281.22-18.2 280.62-16.45 280.02-14.7 280.02-12.9L280.02-12.9Q280.02-10.95 280.72-9.22 281.42-7.5 282.62-6.15 283.82-4.8 285.47-4.05 287.12-3.3 288.97-3.3ZM331.06-15.6L331.06 0 326.67 0 326.67-14.6Q326.67-18.75 325.39-20.68 324.12-22.6 321.51-22.6L321.51-22.6Q319.72-22.6 317.94-21.7 316.17-20.8 314.79-19.28 313.42-17.75 312.81-15.75L312.81-15.75 312.81 0 308.42 0 308.42-26.1 312.42-26.1 312.42-20.5Q313.47-22.35 315.12-23.7 316.76-25.05 318.87-25.8 320.97-26.55 323.26-26.55L323.26-26.55Q325.51-26.55 327.04-25.73 328.56-24.9 329.44-23.43 330.31-21.95 330.69-19.95 331.06-17.95 331.06-15.6L331.06-15.6ZM349.46 0.5L349.46 0.5Q346.51 0.5 344.09-0.58 341.66-1.65 339.89-3.53 338.11-5.4 337.14-7.85 336.16-10.3 336.16-13.05L336.16-13.05Q336.16-16.75 337.86-19.8 339.56-22.85 342.59-24.7 345.61-26.55 349.51-26.55L349.51-26.55Q353.46-26.55 356.39-24.68 359.31-22.8 360.94-19.78 362.56-16.75 362.56-13.25L362.56-13.25Q362.56-12.75 362.54-12.28 362.51-11.8 362.46-11.55L362.46-11.55 340.81-11.55Q341.01-9 342.24-7.03 343.46-5.05 345.41-3.93 347.36-2.8 349.61-2.8L349.61-2.8Q352.01-2.8 354.14-4 356.26-5.2 357.06-7.15L357.06-7.15 360.86-6.1Q360.01-4.2 358.34-2.7 356.66-1.2 354.39-0.35 352.11 0.5 349.46 0.5ZM340.66-14.6L340.66-14.6 358.46-14.6Q358.26-17.15 357.01-19.1 355.76-21.05 353.81-22.15 351.86-23.25 349.51-23.25L349.51-23.25Q347.21-23.25 345.26-22.15 343.31-21.05 342.09-19.1 340.86-17.15 340.66-14.6ZM381.26-26.25L381.26-22.25Q377.96-22.2 375.44-20.58 372.91-18.95 371.86-16.1L371.86-16.1 371.86 0 367.46 0 367.46-26.1 371.56-26.1 371.56-20.05Q372.91-22.75 375.14-24.43 377.36-26.1 379.81-26.3L379.81-26.3Q380.31-26.3 380.66-26.3 381.01-26.3 381.26-26.25L381.26-26.25Z" opacity="1" transform="matrix(1,0,0,1,0,0)" fill="#ffffff" class="slogan-text-1" data-fill-palette-color="secondary" id="text-1"></path></svg></g></svg></g></svg></g></svg></g><g></g></svg></g></svg></g><path d="M0 56.977L0 1 244.431 1 244.431 56.977 237.835 56.977 237.835 7.596 6.596 7.596 6.596 56.977 0 56.977M0 190.223L0 246.2 244.431 246.2 244.431 190.223 237.835 190.223 237.835 239.604 6.596 239.604 6.596 190.223 0 190.223" fill="#ffffff" stroke="transparent" data-fill-palette-color="primary"></path></svg></g><defs></defs></svg><rect width="244.43135999999998" height="247.2" fill="none" stroke="none" visibility="hidden"></rect></g></svg></g></svg>